# xmcd
#
# Track frame offsets:
#   150
#   15188
#   29963
#   44118
#   62270
#   75768
#   93263
#   105785
#   120528
#   136789
#   155050
#   171378
#   182183
#   201645
#   216175
#   227213
#   241699
#
# Disc length: 3362 seconds
#
# Revision: 0
# Processed by: cddbd v1.5.1PL2 Copyright (c) Steve Scherf et al.
# Submitted via: uFREEDB 1.6.2
#
DISCID=dd0d2011
DTITLE=The Top Song 3 - The Top Song 3
DYEAR=1970
DGENRE=UnClassifiable
TTITLE0=Morning has broken
TTITLE1=Without you
TTITLE2=Heart of gold
TTITLE3=Vincent
TTITLE4=Beautiful Sunday
TTITLE5=It never rains in Southern California
TTITLE6=Ben
TTITLE7=Song sung blue
TTITLE8=Alone again
TTITLE9=I'd love you to wait me
TTITLE10=Don't expect me to be
TTITLE11=I'd like to teach the world to sing
TTITLE12=The first time never I saw you face
TTITLE13=Live and let die
TTITLE14=Time in a bottle 
TTITLE15=I got a name
TTITLE16=The morning after
EXTD=
EXTT0=
EXTT1=
EXTT2=
EXTT3=
EXTT4=
EXTT5=
EXTT6=
EXTT7=
EXTT8=
EXTT9=
EXTT10=
EXTT11=
EXTT12=
EXTT13=
EXTT14=
EXTT15=
EXTT16=
PLAYORDER=
